{"title":"Tonic.Dominant.2000.DVDRip.XviD-KG","uid":7583885,"size":734476960,"categoryP":"video","categoryS":"movies","magnet":"?xt=urn:btih:a3c7c4bed66a09deef797998b6c40921474dcfa8&amp;dn=Tonic.Dominant.2000.DVDRip.XviD-KG&amp;tr=udp%3A%2F%2Ftracker.openbittorrent.com%3A80&amp;tr=udp%3A%2F%2Fopen.demonii.com%3A1337&amp;tr=udp%3A%2F%2Ftracker.coppersurfer.tk%3A6969&amp;tr=udp%3A%2F%2Fexodus.desync.com%3A6969","seeders":0,"leechers":0,"uploader":"rpessoa","files":3,"time":1346365523,"description":"Three days in the life of a young clarinetist (Fernando Alves Pinto), who is in love with a violinist (Vera Zimmerman), but can't get her attention. In the first day he feels alone and frail; in the second day what was supposed to be pleasant becomes a nightmare; in the third day he finally achieves fulfillment through music and helps a pianist (Vera Holtz) who is rehearsing for a concert. These three days correspond to a three movement sonata - the director (Lina Chamie) is a musician, so she imprinted a musical structure to her movie, with few dialogs and poetic images. It's a movie for music lovers. Written by CeciliaWolf@IMDB\n &lt;a href=&quot;\nhttp://www.imdb.com/title/tt0264117/&quot; rel=&quot;nofollow&quot; target=&quot;_NEW&quot;&gt;\nhttp://www.imdb.com/title/tt0264117/&lt;/a&gt;\n\n\nGeneral\nComplete name                            : Tonica.avi\nFormat                                   : AVI\nFormat/Info                              : Audio Video Interleave\nFile size                                : 700 MiB\nDuration                                 : 1h 19mn\nOverall bit rate mode                    : Variable\nOverall bit rate                         : 1 229 Kbps\nWriting application                      : Nandub v1.0rc2\nWriting library                          : Nandub build 1852/release\n\nVideo\nID                                       : 0\nFormat                                   : MPEG-4 Visual\nFormat settings, BVOP                    : No\nFormat settings, QPel                    : No\nFormat settings, GMC                     : No warppoints\nFormat settings, Matrix                  : Default (MPEG)\nCodec ID                                 : XVID\nCodec ID/Hint                            : XviD\nDuration                                 : 1h 19mn\nBit rate                                 : 1 085 Kbps\nWidth                                    : 640 pixels\nHeight                                   : 352 pixels\nDisplay aspect ratio                     : 16:9\nFrame rate                               : 23.976 fps\nColor space                              : YUV\nChroma subsampling                       : 4:2:0\nBit depth                                : 8 bits\nScan type                                : Progressive\nCompression mode                         : Lossy\nBits/(Pixel*Frame)                       : 0.201\nStream size                              : 618 MiB (88%)\n\nAudio\nID                                       : 1\nFormat                                   : MPEG Audio\nFormat version                           : Version 1\nFormat profile                           : Layer 3\nMode                                     : Joint stereo\nMode extension                           : MS Stereo\nCodec ID                                 : 55\nCodec ID/Hint                            : MP3\nDuration                                 : 1h 19mn\nBit rate mode                            : Variable\nBit rate                                 : 132 Kbps\nChannel(s)                               : 2 channels\nSampling rate                            : 48.0 KHz\nCompression mode                         : Lossy\nStream size                              : 75.1 MiB (11%)\nAlignment                                : Aligned on interleaves\nInterleave, duration                     : 24 ms (0.58 video frame)\nInterleave, preload duration             : 474 ms\n\nLANGUAGE: Portuguese\nSUBS: English, Spanish","torrent":{"xt":"urn:btih:a3c7c4bed66a09deef797998b6c40921474dcfa8","amp;dn":"Tonic.Dominant.2000.DVDRip.XviD-KG","amp;tr":["udp%3A%2F%2Ftracker.openbittorrent.com%3A80","udp%3A%2F%2Fopen.demonii.com%3A1337","udp%3A%2F%2Ftracker.coppersurfer.tk%3A6969","udp%3A%2F%2Fexodus.desync.com%3A6969"],"infoHash":"a3c7c4bed66a09deef797998b6c40921474dcfa8","infoHashBuffer":{"type":"Buffer","data":[163,199,196,190,214,106,9,222,239,121,121,152,182,196,9,33,71,77,207,168]},"announce":[],"urlList":[]}}